<?xml version="1.0" encoding="utf-8"?>
<!-- Generator: Adobe Illustrator 20.0.0, SVG Export Plug-In . SVG Version: 6.00 Build 0)  -->
<svg version="1.1" id="Layer_1" xmlns="http://www.w3.org/2000/svg" xmlns:xlink="http://www.w3.org/1999/xlink" x="0px" y="0px"
	 viewBox="0 0 70 81" style="enable-background:new 0 0 70 81;" xml:space="preserve">
<style type="text/css">
	.st0{fill:#FFFFFF;}
	.st1{fill:#00953A;stroke:#00953A;stroke-width:0.929;stroke-linecap:round;stroke-linejoin:round;stroke-miterlimit:10;}
	.st2{fill:#00953A;}
	.st3{fill:none;stroke:#00953A;stroke-linecap:round;stroke-linejoin:round;stroke-miterlimit:10;}
	.st4{fill:none;stroke:#00953A;stroke-width:2;stroke-linecap:round;stroke-linejoin:round;stroke-miterlimit:10;}
</style>
<rect x="5" y="5.8" class="st0" width="60" height="46.1"/>
<g>
	<path class="st1" d="M51.8,30.6l0-4.6L49.2,25c-1-0.3-1.7-1.1-2.1-2l0,0c-0.4-0.9-0.4-2,0.1-2.9l1.1-2.4L45,14.4l-2.4,1.2
		c-0.9,0.4-2,0.5-2.9,0.1l0,0c-0.9-0.4-1.7-1.2-2-2.1l-0.9-2.5l-4.6,0l-0.9,2.5c-0.3,1-1.1,1.7-2,2.1c0,0,0,0,0,0
		c-0.9,0.4-2,0.4-2.9-0.1l-2.4-1.1l-3.3,3.3l1.2,2.4c0.4,0.9,0.5,2,0.1,2.9l0,0c-0.4,0.9-1.2,1.7-2.1,2l-2.5,0.9l0,4.6l2.5,0.9
		c1,0.3,1.7,1.1,2.1,2l0,0c0.4,0.9,0.4,2-0.1,2.9L20.7,39l3.3,3.3l2.4-1.2c0.9-0.4,2-0.5,2.9-0.1c0,0,0,0,0,0c0.9,0.4,1.7,1.2,2,2.1
		l0.9,2.5l4.6,0l0.9-2.5c0.3-1,1.1-1.7,2-2.1c0,0,0,0,0,0c0.9-0.4,2-0.4,2.9,0.1l2.4,1.1l3.3-3.3l-1.2-2.4c-0.4-0.9-0.5-2-0.1-2.9
		c0,0,0,0,0,0c0.4-0.9,1.2-1.7,2.1-2L51.8,30.6z"/>
</g>
<g>
	<path class="st2" d="M68,5.5c0,0.5-0.4,1-1,1H3c-0.5,0-1-0.5-1-1V5c0-0.6,0.5-1,1-1h64c0.6,0,1,0.5,1,1V5.5z"/>
	<path class="st3" d="M68,5.5c0,0.5-0.4,1-1,1H3c-0.5,0-1-0.5-1-1V5c0-0.6,0.5-1,1-1h64c0.6,0,1,0.5,1,1V5.5z"/>
</g>
<g>
	<path class="st2" d="M68,51.7c0,0.5-0.4,1-1,1H3c-0.5,0-1-0.5-1-1v-0.5c0-0.5,0.5-1,1-1h64c0.6,0,1,0.5,1,1V51.7z"/>
	<path class="st3" d="M68,51.7c0,0.5-0.4,1-1,1H3c-0.5,0-1-0.5-1-1v-0.5c0-0.5,0.5-1,1-1h64c0.6,0,1,0.5,1,1V51.7z"/>
</g>
<line class="st4" x1="35" y1="52.7" x2="10.7" y2="77"/>
<line class="st4" x1="35" y1="52.7" x2="59.3" y2="77"/>
<circle class="st0" cx="35" cy="28.3" r="8.4"/>
<line class="st4" x1="65" y1="6.5" x2="65" y2="50.2"/>
<line class="st4" x1="5" y1="6.5" x2="5" y2="50.2"/>
</svg>
