<?xml version="1.0" encoding="utf-8"?>
<!-- Generator: Adobe Illustrator 20.0.0, SVG Export Plug-In . SVG Version: 6.00 Build 0)  -->
<svg version="1.1" id="Layer_1" xmlns="http://www.w3.org/2000/svg" xmlns:xlink="http://www.w3.org/1999/xlink" x="0px" y="0px"
	 viewBox="0 0 70 81" style="enable-background:new 0 0 70 81;" xml:space="preserve">
<style type="text/css">
	.st0{clip-path:url(#SVGID_2_);}
	.st1{fill:#FFFFFF;}
	.st2{fill:#00953A;}
	.st3{clip-path:url(#SVGID_4_);}
</style>
<g>
	<defs>
		<path id="SVGID_1_" d="M45.9,3.3L22.5,36.6c2.7,3.8,8.1,9.5,13.3,13.2c11.3-8.6,33.4-24.6,33.4-24.6l-9-22.5L45.9,3.3z"/>
	</defs>
	<clipPath id="SVGID_2_">
		<use xlink:href="#SVGID_1_"  style="overflow:visible;"/>
	</clipPath>
	<g class="st0">
		<path class="st1" d="M31.3,46c-0.1,0-0.2,0-0.3-0.1c-1-0.9-5-5.1-5.1-5.2c-0.2-0.2-0.2-0.5,0-0.7c3.5-3.2,8.8-8,14.8-13.5l0.3-0.2
			c1.6-1.4,1.6-3.3,1.1-4.4c-0.8-1.9-0.6-4.3,0.6-6.8c1.1-2.2,4-3.7,6.4-4.3c0,0,0.1,0,0.1,0c0.2,0,0.3,0.1,0.4,0.2
			c0.1,0.2,0.1,0.4,0,0.6l-1.7,3c-1.1,2.4-1.5,4.2-1.1,5.3c0.4,1.1,1.1,2.1,3.4,3.2c1.4,0.7,2.4,1,3.4,1c0.2,0,0.3,0,0.5,0
			c1.8-0.2,3.5-1.3,4.4-2.9c0.9-1.5,1.5-3.7,1.8-5.2c0.1-0.2,0.2-0.4,0.5-0.4c0,0,0,0,0,0c0.2,0,0.4,0.1,0.5,0.4
			c0.6,1.9,0.7,5.9-0.4,8.2c-2.3,4.8-6.3,5.1-7.4,5.1c-1.1,0-2.2-0.2-3.4-0.5c-0.2-0.1-0.6-0.2-1.1-0.2c-0.7,0-1.6,0.2-2.6,1.2
			l-0.6,0.7c-6.2,6.9-11,12.1-14.1,15.6C31.6,46,31.5,46,31.3,46z"/>
		<path class="st2" d="M49.2,11.2c-0.9,1.5-1.7,3-1.7,3c-0.8,1.6-1.7,4-1.1,5.7c0.5,1.3,1.3,2.3,3.6,3.4c1.4,0.7,2.5,1,3.6,1
			c0.2,0,0.4,0,0.5,0c2.1-0.3,3.9-1.5,4.8-3.1c0.9-1.6,1.5-3.8,1.9-5.4c0.5,1.7,0.7,5.6-0.4,7.9c-1.9,3.9-5,4.8-7,4.8
			c-1.1,0-2.1-0.2-3.2-0.5C50,28,49.6,27.8,49,27.8c-0.8,0-1.9,0.2-2.9,1.4c-0.2,0.3-9.2,10.1-14.7,16.3c-1-0.9-5-5-5.1-5.2
			c6-5.4,14.8-13.5,15.1-13.7c1.8-1.6,1.8-3.6,1.2-5c-0.8-2.1-0.4-4.4,0.6-6.4C44.2,13,47.2,11.7,49.2,11.2 M49.2,10.2
			c-0.1,0-0.2,0-0.3,0c-2.5,0.6-5.5,2.2-6.7,4.6c-1.3,2.7-1.5,5.2-0.6,7.2c0.4,1,0.4,2.6-1,3.8l-0.3,0.3c-6,5.5-11.3,10.3-14.8,13.5
			c-0.4,0.4-0.4,1-0.1,1.4c0.1,0.2,4.1,4.4,5.2,5.3c0.2,0.2,0.4,0.2,0.7,0.2c0.3,0,0.5-0.1,0.7-0.3c3.1-3.5,7.9-8.8,14.2-15.7
			l0.6-0.6c0.6-0.7,1.4-1.1,2.2-1.1c0.4,0,0.7,0.1,0.9,0.1c1.2,0.3,2.4,0.5,3.5,0.5c1.2,0,5.5-0.4,7.9-5.4c1.2-2.5,1-6.6,0.4-8.6
			c-0.1-0.4-0.5-0.7-1-0.7c0,0,0,0,0,0c-0.5,0-0.8,0.3-0.9,0.8c-0.4,1.5-1,3.7-1.8,5.1c-0.8,1.4-2.3,2.4-4,2.6c-0.1,0-0.3,0-0.4,0
			c-0.9,0-1.9-0.3-3.1-0.9c-2.1-1-2.8-1.8-3.1-2.9c-0.4-1,0-2.7,1.1-4.9l1.7-2.9c0.2-0.3,0.2-0.8-0.1-1.1
			C49.8,10.3,49.5,10.2,49.2,10.2L49.2,10.2z"/>
	</g>
</g>
<g>
	<defs>
		<path id="SVGID_3_" d="M-5.9,57.5l20.5-15.6c4.3,4.4,11,11,14.8,15.1C25.8,63.3,7.2,78.1,7.2,78.1L-5.9,57.5z"/>
	</defs>
	<clipPath id="SVGID_4_">
		<use xlink:href="#SVGID_3_"  style="overflow:visible;"/>
	</clipPath>
	<g class="st3">
		<path class="st1" d="M9.1,68.9c-1.5,0-2.9-0.5-4-1.5c-2.5-2.2-2.7-6-0.5-8.4c0.2-0.2,0.3-0.3,0.5-0.5l13.2-11.4
			c0.1-0.1,0.2-0.1,0.3-0.1c0.1,0,0.3,0.1,0.4,0.2c1,1.1,4.9,5,6.3,6.3c0.1,0.1,0.2,0.2,0.2,0.3c0,0.1,0,0.3-0.1,0.4L13.6,66.9
			C12.5,68.2,10.8,68.9,9.1,68.9z"/>
		<g>
			<path class="st2" d="M18.7,47.4c1,1.1,5,5.1,6.4,6.3L13.2,66.6c-1,1.2-2.5,1.8-4.1,1.8c-1.3,0-2.6-0.5-3.6-1.4
				C3.2,65,3,61.5,5,59.3c0.1-0.2,0.3-0.3,0.5-0.5L18.7,47.4 M18.7,46.4c-0.2,0-0.5,0.1-0.7,0.2L4.8,58.1c-0.2,0.2-0.4,0.4-0.5,0.5
				c-2.4,2.7-2.1,6.8,0.5,9.1c1.2,1.1,2.7,1.7,4.3,1.7c1.8,0,3.6-0.8,4.8-2.2l11.8-12.8c0.2-0.2,0.3-0.5,0.3-0.7
				c0-0.3-0.1-0.5-0.3-0.7c-1.4-1.2-5.3-5.2-6.3-6.2C19.2,46.6,18.9,46.4,18.7,46.4L18.7,46.4z"/>
		</g>
	</g>
</g>
<g>
	<path class="st1" d="M51.8,69.2c0,0-0.1,0-0.1,0c-6.6-1.5-19.6-9.1-29.7-19.3C11.7,39.8,4.1,26.8,2.6,20.2c0-0.1,0-0.1,0-0.2
		c0.2-1.6,1-7.3,5.7-12.1l2.6-2.6c0.1-0.1,0.2-0.1,0.4-0.1s0.3,0,0.4,0.1l13.2,13.2c0.1,0.1,0.1,0.2,0.1,0.4c0,0.1-0.1,0.3-0.1,0.4
		l-2.4,2.4l-4.2,3.4c-0.6,0.5-0.9,1.3-0.7,2c0.1,0.5,1.2,5,6.6,11.6c0.1,0.1,0.1,0.1,0.1,0.2c0.7,0.8,1.4,1.6,2.1,2.4
		c0.7,0.7,1.3,1.4,2.1,2.1c9.2,9.2,16.1,10.8,16.3,10.9c0.1,0,0.3,0,0.4,0c0.6,0,1.2-0.3,1.6-0.8l3.4-4.2l2.5-2.5
		c0.1-0.1,0.2-0.1,0.4-0.1s0.3,0.1,0.4,0.1l13.2,13.2c0.1,0.1,0.1,0.2,0.1,0.4s-0.1,0.3-0.1,0.4L64,63.4c-0.1,0.1-0.1,0.1-0.1,0.1
		C59.2,68.2,53.5,69.1,51.8,69.2C51.8,69.2,51.8,69.2,51.8,69.2z"/>
	<g>
		<path class="st2" d="M11.2,5.7l13.2,13.2l-2.4,2.4c0,0,0,0,0,0l-4.2,3.4c-0.8,0.6-1.1,1.6-0.9,2.5c0.1,0.5,1.2,5.1,6.7,11.8
			c0,0.1,0.1,0.1,0.1,0.2c0.7,0.8,1.4,1.6,2.1,2.4c0.7,0.7,1.4,1.4,2.1,2.2c9.4,9.4,16.3,10.9,16.6,11c0.2,0,0.4,0.1,0.5,0.1
			c0.8,0,1.5-0.3,2-1l3.4-4.2c0,0,0,0,0,0l2.4-2.4l13.2,13.2l-2.5,2.5c-0.1,0-0.1,0.1-0.2,0.1c-4.6,4.6-10.4,5.4-11.8,5.5
			c-6.5-1.5-19.4-9.1-29.5-19.2C12.2,39.5,4.6,26.6,3.1,20.1C3.2,18.7,4,13,8.6,8.3c0,0,0,0,0.1-0.1L11.2,5.7 M11.2,4.7
			c-0.3,0-0.5,0.1-0.7,0.3L8,7.5L7.9,7.6C3.2,12.4,2.3,18.3,2.1,20c0,0.1,0,0.2,0,0.3c1.5,6.7,9.2,19.8,19.4,30
			c10.2,10.2,23.3,17.9,30,19.4c0.1,0,0.1,0,0.2,0c0,0,0.1,0,0.1,0c1.7-0.2,7.6-1.1,12.4-5.8c0,0,0.1-0.1,0.1-0.1c0,0,0,0,0.1-0.1
			l2.5-2.5c0.2-0.2,0.3-0.4,0.3-0.7c0-0.3-0.1-0.5-0.3-0.7L53.6,46.7c-0.2-0.2-0.4-0.3-0.7-0.3c0,0,0,0,0,0c-0.3,0-0.5,0.1-0.7,0.3
			l-2.4,2.4c0,0-0.1,0.1-0.1,0.1l-3.4,4.2c-0.3,0.4-0.7,0.6-1.2,0.6c-0.1,0-0.2,0-0.3,0c-0.3-0.1-6.9-1.6-16.1-10.7
			c-0.7-0.7-1.4-1.4-2-2.1c-0.7-0.8-1.4-1.6-2.1-2.4c0,0-0.1-0.1-0.1-0.1c0,0,0,0,0-0.1c-5.3-6.6-6.4-10.9-6.5-11.4
			c-0.1-0.6,0.1-1.2,0.5-1.5l4.2-3.4c0,0,0.1,0,0.1-0.1l2.4-2.4c0.2-0.2,0.3-0.4,0.3-0.7c0-0.3-0.1-0.5-0.3-0.7L11.9,5
			C11.7,4.8,11.5,4.7,11.2,4.7L11.2,4.7z"/>
	</g>
</g>
</svg>
