<?xml version="1.0" encoding="utf-8"?>
<!-- Generator: Adobe Illustrator 20.0.0, SVG Export Plug-In . SVG Version: 6.00 Build 0)  -->
<svg version="1.1" id="Layer_1" xmlns="http://www.w3.org/2000/svg" xmlns:xlink="http://www.w3.org/1999/xlink" x="0px" y="0px"
	 viewBox="0 0 70 81" style="enable-background:new 0 0 70 81;" xml:space="preserve">
<style type="text/css">
	.st0{fill:none;stroke:#00953A;stroke-width:2;stroke-linecap:round;stroke-linejoin:round;stroke-miterlimit:10;}
	.st1{fill:#00953A;stroke:#00953A;stroke-miterlimit:10;}
	.st2{fill:#00953A;stroke:#00953A;stroke-linecap:round;stroke-linejoin:round;stroke-miterlimit:10;}
</style>
<path class="st0" d="M14.7,62.7c-3.5-4.4-5.7-9.9-5.7-15.9V26.6c0-13.9,11.4-25.3,25.3-25.3h1.3c13.9,0,25.3,11.4,25.3,25.3v20.2
	c0,13.9-11.4,25.3-25.3,25.3h-1.3"/>
<path class="st1" d="M35,64.4c5.9,0,10.6,3.4,10.6,7.6c0,4.2-4.7,7.6-10.6,7.6s-10.6-3.4-10.6-7.6C24.4,67.8,29.1,64.4,35,64.4"/>
<path class="st2" d="M9.1,27.7c-1.8,0.6-3.4,1.6-4.7,2.9l0,0l0,0c-2.1,2.1-3.5,5.1-3.5,8.4c0,3.2,1.3,6.1,3.3,8.2l0.2,0.2
	c1.3,1.3,2.9,2.3,4.7,2.9l0,0"/>
<path class="st2" d="M60.9,50.3c1.8-0.6,3.4-1.6,4.7-2.9l0,0l0,0c2.1-2.1,3.5-5.1,3.5-8.4c0-3.2-1.3-6.1-3.3-8.2l-0.2-0.2
	c-1.3-1.3-2.9-2.3-4.7-2.9l0,0"/>
</svg>
