<svg id="Layer_1" data-name="Layer 1" xmlns="http://www.w3.org/2000/svg" viewBox="0 0 63.5 71.95"><defs><style>.cls-1{fill:#009639;}.cls-2{fill:#fff;}.cls-3{fill:#999;}</style></defs><g id="Art"><path class="cls-1" d="M.5,54.7a3.76,3.76,0,0,0,1.4,1.4l28,16.1h0a3.52,3.52,0,0,0,3.7,0l28-16.1a3.7,3.7,0,0,0,1.9-3.2V20.6h0a3.58,3.58,0,0,0-1.9-3.2L33.6,1.3h0a3.52,3.52,0,0,0-3.7,0h0L1.9,17.4A3.58,3.58,0,0,0,0,20.6H0V52.9a3.74,3.74,0,0,0,.5,1.8" transform="translate(0 -0.77)"/></g><path class="cls-2" d="M49.5,42V31.4A4.74,4.74,0,0,0,48.3,22a4.66,4.66,0,0,0-4.1,4.7,4.33,4.33,0,0,0,.4,1.9l-9.2,5.5a5,5,0,0,0-3.1-1.8V21.1a4.74,4.74,0,1,0-1.2-9.4A4.66,4.66,0,0,0,27,16.4a4.33,4.33,0,0,0,.4,1.9L18,23.7a4.75,4.75,0,1,0-.5,6.7,4.8,4.8,0,0,0,1.7-3.7,4.55,4.55,0,0,0-.5-2L28,19.3a5,5,0,0,0,3.1,1.8V32.3A4.64,4.64,0,0,0,27,37.5a5.27,5.27,0,0,0,.3,1.2l-9.1,5.1a4.72,4.72,0,1,0-1,6.6,7.64,7.64,0,0,0,.9-.9L27.3,55a4.06,4.06,0,0,0-.4,1.9,4.8,4.8,0,0,0,4.8,4.8A4.8,4.8,0,1,0,27.9,54l-9.2-5.5a4.06,4.06,0,0,0,.4-1.9,5.66,5.66,0,0,0-.3-1.8l9.1-5.1a4.67,4.67,0,0,0,6.5,1.1,3.84,3.84,0,0,0,1.1-1.1l9.1,5.1a5.66,5.66,0,0,0-.3,1.8,4.75,4.75,0,0,0,9.5.1A5,5,0,0,0,49.5,42ZM36.1,38.8a4.75,4.75,0,0,0,0-3.7l9.2-5.5a5,5,0,0,0,3.1,1.8V42a4.68,4.68,0,0,0-3.2,1.9Z" transform="translate(0 -0.77)"/><path class="cls-3" d="M60,66h.46V65h.37a1,1,0,0,1,.51.09c.16.09.24.29.24.59V66s0,0,0,0,0,0,0,0H62v0a.37.37,0,0,1,0-.14,1.28,1.28,0,0,1,0-.19v-.2a.75.75,0,0,0-.14-.4.68.68,0,0,0-.45-.26.94.94,0,0,0,.37-.12.56.56,0,0,0,.26-.51.63.63,0,0,0-.4-.66,1.83,1.83,0,0,0-.72-.1H60Zm1.31-1.4a1.18,1.18,0,0,1-.44.06h-.41v-.95h.4a1.25,1.25,0,0,1,.55.1.41.41,0,0,1,.17.38.4.4,0,0,1-.27.41m1.34-1.56a2.33,2.33,0,0,0-1.69-.69,2.28,2.28,0,0,0-1.67.69,2.39,2.39,0,0,0,0,3.35,2.38,2.38,0,0,0,3.37,0,2.38,2.38,0,0,0,0-3.35m-.25.23a2,2,0,0,1,.6,1.45,2,2,0,0,1-2,2,2,2,0,0,1-2-2,2,2,0,0,1,2-2,2,2,0,0,1,1.44.6" transform="translate(0 -0.77)"/></svg>